<?xml version="1.0" standalone="no"?><!DOCTYPE svg PUBLIC "-//W3C//DTD SVG 1.1//EN" "http://www.w3.org/Graphics/SVG/1.1/DTD/svg11.dtd"><svg t="1668746282423" class="icon" viewBox="0 0 1024 1024" version="1.1" xmlns="http://www.w3.org/2000/svg" p-id="1722" xmlns:xlink="http://www.w3.org/1999/xlink" width="16" height="16"><path d="M800 192H224a128 128 0 0 0-128 128v384a128 128 0 0 0 128 128h576a128 128 0 0 0 128-128V320a128 128 0 0 0-128-128zM309.184 667.008h-36.608V421.632a188.992 188.992 0 0 1-34.624 26.496 234.816 234.816 0 0 1-38.528 19.904v-37.184c20.416-10.112 38.336-22.4 53.632-36.8 15.296-14.4 26.176-28.352 32.512-41.92h23.616v314.88z m283.456 0H395.648a71.552 71.552 0 0 1 4.288-26.752c5.056-14.144 13.056-28.032 24.064-41.728 11.072-13.632 27.008-29.504 47.872-47.488 32.384-27.968 54.272-50.048 65.664-66.432 11.392-16.32 17.088-31.744 17.088-46.336a52.8 52.8 0 0 0-15.552-38.592A54.656 54.656 0 0 0 498.496 384c-17.6 0-31.68 5.568-42.304 16.64-10.56 11.136-15.872 26.56-16.064 46.208l-37.568-4.032c2.56-29.504 12.224-52.032 29.056-67.52s39.36-23.168 67.712-23.168c28.608 0 51.2 8.32 67.968 25.024 16.64 16.704 25.024 37.376 25.024 62.08 0 12.544-2.496 24.896-7.36 36.992s-12.992 24.832-24.32 38.272-30.144 31.808-56.448 55.104c-21.952 19.456-36.032 32.64-42.304 39.552a126.72 126.72 0 0 0-15.424 20.864H592.64v36.992z m203.456-22.976c-18.88 19.136-42.88 28.544-72 28.544-26.048 0-47.872-8.192-65.152-24.576s-27.008-37.696-29.44-63.808l36.544-5.12c4.16 21.824 11.328 37.504 21.44 47.168 10.112 9.6 22.4 14.464 36.864 14.464 17.28 0 31.744-6.272 43.648-18.816 11.904-12.48 17.728-28.096 17.728-46.656a60.48 60.48 0 0 0-16.384-43.712 55.488 55.488 0 0 0-41.856-17.28c-6.912 0-15.488 1.408-25.792 4.288l4.032-33.792a72.576 72.576 0 0 0 48-12.416c12.48-8.576 18.624-21.76 18.624-39.616a46.912 46.912 0 0 0-48.768-48.96 48.512 48.512 0 0 0-35.584 14.08c-9.472 9.472-15.552 23.616-18.304 42.432l-36.544-6.848c4.48-25.792 14.656-45.824 30.528-60.032 15.872-14.208 35.584-21.312 59.136-21.312 16.256 0 31.232 3.648 44.928 11.008 13.696 7.36 24.128 17.344 31.424 30.08 7.232 12.736 10.88 26.176 10.88 40.448 0 13.504-3.52 25.856-10.368 36.992a72.128 72.128 0 0 1-30.656 26.56c17.536 4.288 31.232 13.184 41.088 26.624 9.664 13.504 14.656 30.336 14.656 50.624a95.488 95.488 0 0 1-28.672 69.632z" p-id="1723" fill="#d4237a"></path></svg>